<?xml version="1.0" standalone="no"?><svg xmlns="http://www.w3.org/2000/svg" width="500" height="500"><polygon points="2.272727272727273,2.272727272727273 47.31404958677686,2.272727272727273 47.31404958677686,47.31404958677686 2.272727272727273,47.31404958677686" fill="white"></polygon><polygon points="2.272727272727273,47.31404958677686 47.31404958677686,47.31404958677686 47.31404958677686,92.35537190082644 2.272727272727273,92.35537190082644" fill="white"></polygon><polygon points="2.272727272727273,92.35537190082644 47.31404958677686,92.35537190082644 47.31404958677686,137.39669421487605 2.272727272727273,137.39669421487605" fill="white"></polygon><polygon points="2.272727272727273,137.39669421487605 47.31404958677686,137.39669421487605 47.31404958677686,182.43801652892563 2.272727272727273,182.43801652892563" fill="white"></polygon><polygon points="2.272727272727273,182.43801652892563 47.31404958677686,182.43801652892563 47.31404958677686,227.4793388429752 2.272727272727273,227.4793388429752" fill="white"></polygon><polygon points="2.272727272727273,227.4793388429752 47.31404958677686,227.4793388429752 47.31404958677686,272.5206611570248 2.272727272727273,272.5206611570248" fill="white"></polygon><polygon points="2.272727272727273,272.5206611570248 47.31404958677686,272.5206611570248 47.31404958677686,317.56198347107437 2.272727272727273,317.56198347107437" fill="white"></polygon><polygon points="2.272727272727273,317.56198347107437 47.31404958677686,317.56198347107437 47.31404958677686,362.60330578512395 2.272727272727273,362.60330578512395" fill="white"></polygon><polygon points="2.272727272727273,362.60330578512395 47.31404958677686,362.60330578512395 47.31404958677686,407.64462809917353 2.272727272727273,407.64462809917353" fill="white"></polygon><polygon points="2.272727272727273,407.64462809917353 47.31404958677686,407.64462809917353 47.31404958677686,452.6859504132231 2.272727272727273,452.6859504132231" fill="white"></polygon><polygon points="2.272727272727273,452.6859504132231 47.31404958677686,452.6859504132231 47.31404958677686,497.7272727272727 2.272727272727273,497.7272727272727" fill="white"></polygon><polygon points="47.31404958677686,2.272727272727273 92.35537190082644,2.272727272727273 92.35537190082644,47.31404958677686 47.31404958677686,47.31404958677686" fill="white"></polygon><polygon points="47.31404958677686,47.31404958677686 92.35537190082644,47.31404958677686 92.35537190082644,92.35537190082644 47.31404958677686,92.35537190082644" fill="white"></polygon><polygon points="47.31404958677686,92.35537190082644 92.35537190082644,92.35537190082644 92.35537190082644,137.39669421487605 47.31404958677686,137.39669421487605" fill="white"></polygon><polygon points="47.31404958677686,137.39669421487605 92.35537190082644,137.39669421487605 92.35537190082644,182.43801652892563 47.31404958677686,182.43801652892563" fill="white"></polygon><polygon points="47.31404958677686,182.43801652892563 92.35537190082644,182.43801652892563 92.35537190082644,227.4793388429752 47.31404958677686,227.4793388429752" fill="white"></polygon><polygon points="47.31404958677686,227.4793388429752 92.35537190082644,227.4793388429752 92.35537190082644,272.5206611570248 47.31404958677686,272.5206611570248" fill="white"></polygon><polygon points="47.31404958677686,272.5206611570248 92.35537190082644,272.5206611570248 92.35537190082644,317.56198347107437 47.31404958677686,317.56198347107437" fill="white"></polygon><polygon points="47.31404958677686,317.56198347107437 92.35537190082644,317.56198347107437 92.35537190082644,362.60330578512395 47.31404958677686,362.60330578512395" fill="white"></polygon><polygon points="47.31404958677686,362.60330578512395 92.35537190082644,362.60330578512395 92.35537190082644,407.64462809917353 47.31404958677686,407.64462809917353" fill="white"></polygon><polygon points="47.31404958677686,407.64462809917353 92.35537190082644,407.64462809917353 92.35537190082644,452.6859504132231 47.31404958677686,452.6859504132231" fill="white"></polygon><polygon points="47.31404958677686,452.6859504132231 92.35537190082644,452.6859504132231 92.35537190082644,497.7272727272727 47.31404958677686,497.7272727272727" fill="white"></polygon><polygon points="92.35537190082644,2.272727272727273 137.39669421487605,2.272727272727273 137.39669421487605,47.31404958677686 92.35537190082644,47.31404958677686" fill="white"></polygon><polygon points="92.35537190082644,47.31404958677686 137.39669421487605,47.31404958677686 137.39669421487605,92.35537190082644 92.35537190082644,92.35537190082644" fill="white"></polygon><polygon points="92.35537190082644,92.35537190082644 137.39669421487605,92.35537190082644 137.39669421487605,137.39669421487605 92.35537190082644,137.39669421487605" fill="white"></polygon><polygon points="92.35537190082644,137.39669421487605 137.39669421487605,137.39669421487605 137.39669421487605,182.43801652892563 92.35537190082644,182.43801652892563" fill="white"></polygon><polygon points="92.35537190082644,182.43801652892563 137.39669421487605,182.43801652892563 137.39669421487605,227.4793388429752 92.35537190082644,227.4793388429752" fill="white"></polygon><polygon points="92.35537190082644,227.4793388429752 137.39669421487605,227.4793388429752 137.39669421487605,272.5206611570248 92.35537190082644,272.5206611570248" fill="white"></polygon><polygon points="92.35537190082644,272.5206611570248 137.39669421487605,272.5206611570248 137.39669421487605,317.56198347107437 92.35537190082644,317.56198347107437" fill="white"></polygon><polygon points="92.35537190082644,317.56198347107437 137.39669421487605,317.56198347107437 137.39669421487605,362.60330578512395 92.35537190082644,362.60330578512395" fill="white"></polygon><polygon points="92.35537190082644,362.60330578512395 137.39669421487605,362.60330578512395 137.39669421487605,407.64462809917353 92.35537190082644,407.64462809917353" fill="white"></polygon><polygon points="92.35537190082644,407.64462809917353 137.39669421487605,407.64462809917353 137.39669421487605,452.6859504132231 92.35537190082644,452.6859504132231" fill="white"></polygon><polygon points="92.35537190082644,452.6859504132231 137.39669421487605,452.6859504132231 137.39669421487605,497.7272727272727 92.35537190082644,497.7272727272727" fill="white"></polygon><polygon points="137.39669421487605,2.272727272727273 182.43801652892563,2.272727272727273 182.43801652892563,47.31404958677686 137.39669421487605,47.31404958677686" fill="white"></polygon><polygon points="137.39669421487605,47.31404958677686 182.43801652892563,47.31404958677686 182.43801652892563,92.35537190082644 137.39669421487605,92.35537190082644" fill="white"></polygon><polygon points="137.39669421487605,92.35537190082644 182.43801652892563,92.35537190082644 182.43801652892563,137.39669421487605 137.39669421487605,137.39669421487605" fill="white"></polygon><polygon points="137.39669421487605,137.39669421487605 182.43801652892563,137.39669421487605 182.43801652892563,182.43801652892563 137.39669421487605,182.43801652892563" fill="white"></polygon><polygon points="137.39669421487605,182.43801652892563 182.43801652892563,182.43801652892563 182.43801652892563,227.4793388429752 137.39669421487605,227.4793388429752" fill="white"></polygon><polygon points="137.39669421487605,227.4793388429752 182.43801652892563,227.4793388429752 182.43801652892563,272.5206611570248 137.39669421487605,272.5206611570248" fill="white"></polygon><polygon points="137.39669421487605,272.5206611570248 182.43801652892563,272.5206611570248 182.43801652892563,317.56198347107437 137.39669421487605,317.56198347107437" fill="white"></polygon><polygon points="137.39669421487605,317.56198347107437 182.43801652892563,317.56198347107437 182.43801652892563,362.60330578512395 137.39669421487605,362.60330578512395" fill="white"></polygon><polygon points="137.39669421487605,362.60330578512395 182.43801652892563,362.60330578512395 182.43801652892563,407.64462809917353 137.39669421487605,407.64462809917353" fill="white"></polygon><polygon points="137.39669421487605,407.64462809917353 182.43801652892563,407.64462809917353 182.43801652892563,452.6859504132231 137.39669421487605,452.6859504132231" fill="white"></polygon><polygon points="137.39669421487605,452.6859504132231 182.43801652892563,452.6859504132231 182.43801652892563,497.7272727272727 137.39669421487605,497.7272727272727" fill="white"></polygon><polygon points="182.43801652892563,2.272727272727273 227.4793388429752,2.272727272727273 227.4793388429752,47.31404958677686 182.43801652892563,47.31404958677686" fill="white"></polygon><polygon points="182.43801652892563,47.31404958677686 227.4793388429752,47.31404958677686 227.4793388429752,92.35537190082644 182.43801652892563,92.35537190082644" fill="white"></polygon><polygon points="182.43801652892563,92.35537190082644 227.4793388429752,92.35537190082644 227.4793388429752,137.39669421487605 182.43801652892563,137.39669421487605" fill="white"></polygon><polygon points="182.43801652892563,137.39669421487605 227.4793388429752,137.39669421487605 227.4793388429752,182.43801652892563 182.43801652892563,182.43801652892563" fill="white"></polygon><polygon points="182.43801652892563,182.43801652892563 227.4793388429752,182.43801652892563 227.4793388429752,227.4793388429752 182.43801652892563,227.4793388429752" fill="white"></polygon><polygon points="182.43801652892563,227.4793388429752 227.4793388429752,227.4793388429752 227.4793388429752,272.5206611570248 182.43801652892563,272.5206611570248" fill="white"></polygon><polygon points="182.43801652892563,272.5206611570248 227.4793388429752,272.5206611570248 227.4793388429752,317.56198347107437 182.43801652892563,317.56198347107437" fill="white"></polygon><polygon points="182.43801652892563,317.56198347107437 227.4793388429752,317.56198347107437 227.4793388429752,362.60330578512395 182.43801652892563,362.60330578512395" fill="white"></polygon><polygon points="182.43801652892563,362.60330578512395 227.4793388429752,362.60330578512395 227.4793388429752,407.64462809917353 182.43801652892563,407.64462809917353" fill="white"></polygon><polygon points="182.43801652892563,407.64462809917353 227.4793388429752,407.64462809917353 227.4793388429752,452.6859504132231 182.43801652892563,452.6859504132231" fill="white"></polygon><polygon points="182.43801652892563,452.6859504132231 227.4793388429752,452.6859504132231 227.4793388429752,497.7272727272727 182.43801652892563,497.7272727272727" fill="white"></polygon><polygon points="227.4793388429752,2.272727272727273 272.5206611570248,2.272727272727273 272.5206611570248,47.31404958677686 227.4793388429752,47.31404958677686" fill="white"></polygon><polygon points="227.4793388429752,47.31404958677686 272.5206611570248,47.31404958677686 272.5206611570248,92.35537190082644 227.4793388429752,92.35537190082644" fill="white"></polygon><polygon points="227.4793388429752,92.35537190082644 272.5206611570248,92.35537190082644 272.5206611570248,137.39669421487605 227.4793388429752,137.39669421487605" fill="white"></polygon><polygon points="227.4793388429752,137.39669421487605 272.5206611570248,137.39669421487605 272.5206611570248,182.43801652892563 227.4793388429752,182.43801652892563" fill="white"></polygon><polygon points="227.4793388429752,182.43801652892563 272.5206611570248,182.43801652892563 272.5206611570248,227.4793388429752 227.4793388429752,227.4793388429752" fill="white"></polygon><polygon points="227.4793388429752,227.4793388429752 272.5206611570248,227.4793388429752 272.5206611570248,272.5206611570248 227.4793388429752,272.5206611570248" fill="white"></polygon><polygon points="227.4793388429752,272.5206611570248 272.5206611570248,272.5206611570248 272.5206611570248,317.56198347107437 227.4793388429752,317.56198347107437" fill="white"></polygon><polygon points="227.4793388429752,317.56198347107437 272.5206611570248,317.56198347107437 272.5206611570248,362.60330578512395 227.4793388429752,362.60330578512395" fill="white"></polygon><polygon points="227.4793388429752,362.60330578512395 272.5206611570248,362.60330578512395 272.5206611570248,407.64462809917353 227.4793388429752,407.64462809917353" fill="white"></polygon><polygon points="227.4793388429752,407.64462809917353 272.5206611570248,407.64462809917353 272.5206611570248,452.6859504132231 227.4793388429752,452.6859504132231" fill="white"></polygon><polygon points="227.4793388429752,452.6859504132231 272.5206611570248,452.6859504132231 272.5206611570248,497.7272727272727 227.4793388429752,497.7272727272727" fill="white"></polygon><polygon points="272.5206611570248,2.272727272727273 317.56198347107437,2.272727272727273 317.56198347107437,47.31404958677686 272.5206611570248,47.31404958677686" fill="white"></polygon><polygon points="272.5206611570248,47.31404958677686 317.56198347107437,47.31404958677686 317.56198347107437,92.35537190082644 272.5206611570248,92.35537190082644" fill="white"></polygon><polygon points="272.5206611570248,92.35537190082644 317.56198347107437,92.35537190082644 317.56198347107437,137.39669421487605 272.5206611570248,137.39669421487605" fill="white"></polygon><polygon points="272.5206611570248,137.39669421487605 317.56198347107437,137.39669421487605 317.56198347107437,182.43801652892563 272.5206611570248,182.43801652892563" fill="white"></polygon><polygon points="272.5206611570248,182.43801652892563 317.56198347107437,182.43801652892563 317.56198347107437,227.4793388429752 272.5206611570248,227.4793388429752" fill="white"></polygon><polygon points="272.5206611570248,227.4793388429752 317.56198347107437,227.4793388429752 317.56198347107437,272.5206611570248 272.5206611570248,272.5206611570248" fill="white"></polygon><polygon points="272.5206611570248,272.5206611570248 317.56198347107437,272.5206611570248 317.56198347107437,317.56198347107437 272.5206611570248,317.56198347107437" fill="white"></polygon><polygon points="272.5206611570248,317.56198347107437 317.56198347107437,317.56198347107437 317.56198347107437,362.60330578512395 272.5206611570248,362.60330578512395" fill="white"></polygon><polygon points="272.5206611570248,362.60330578512395 317.56198347107437,362.60330578512395 317.56198347107437,407.64462809917353 272.5206611570248,407.64462809917353" fill="white"></polygon><polygon points="272.5206611570248,407.64462809917353 317.56198347107437,407.64462809917353 317.56198347107437,452.6859504132231 272.5206611570248,452.6859504132231" fill="white"></polygon><polygon points="272.5206611570248,452.6859504132231 317.56198347107437,452.6859504132231 317.56198347107437,497.7272727272727 272.5206611570248,497.7272727272727" fill="white"></polygon><polygon points="317.56198347107437,2.272727272727273 362.60330578512395,2.272727272727273 362.60330578512395,47.31404958677686 317.56198347107437,47.31404958677686" fill="white"></polygon><polygon points="317.56198347107437,47.31404958677686 362.60330578512395,47.31404958677686 362.60330578512395,92.35537190082644 317.56198347107437,92.35537190082644" fill="white"></polygon><polygon points="317.56198347107437,92.35537190082644 362.60330578512395,92.35537190082644 362.60330578512395,137.39669421487605 317.56198347107437,137.39669421487605" fill="white"></polygon><polygon points="317.56198347107437,137.39669421487605 362.60330578512395,137.39669421487605 362.60330578512395,182.43801652892563 317.56198347107437,182.43801652892563" fill="white"></polygon><polygon points="317.56198347107437,182.43801652892563 362.60330578512395,182.43801652892563 362.60330578512395,227.4793388429752 317.56198347107437,227.4793388429752" fill="white"></polygon><polygon points="317.56198347107437,227.4793388429752 362.60330578512395,227.4793388429752 362.60330578512395,272.5206611570248 317.56198347107437,272.5206611570248" fill="white"></polygon><polygon points="317.56198347107437,272.5206611570248 362.60330578512395,272.5206611570248 362.60330578512395,317.56198347107437 317.56198347107437,317.56198347107437" fill="white"></polygon><polygon points="317.56198347107437,317.56198347107437 362.60330578512395,317.56198347107437 362.60330578512395,362.60330578512395 317.56198347107437,362.60330578512395" fill="white"></polygon><polygon points="317.56198347107437,362.60330578512395 362.60330578512395,362.60330578512395 362.60330578512395,407.64462809917353 317.56198347107437,407.64462809917353" fill="white"></polygon><polygon points="317.56198347107437,407.64462809917353 362.60330578512395,407.64462809917353 362.60330578512395,452.6859504132231 317.56198347107437,452.6859504132231" fill="white"></polygon><polygon points="317.56198347107437,452.6859504132231 362.60330578512395,452.6859504132231 362.60330578512395,497.7272727272727 317.56198347107437,497.7272727272727" fill="white"></polygon><polygon points="362.60330578512395,2.272727272727273 407.64462809917353,2.272727272727273 407.64462809917353,47.31404958677686 362.60330578512395,47.31404958677686" fill="white"></polygon><polygon points="362.60330578512395,47.31404958677686 407.64462809917353,47.31404958677686 407.64462809917353,92.35537190082644 362.60330578512395,92.35537190082644" fill="white"></polygon><polygon points="362.60330578512395,92.35537190082644 407.64462809917353,92.35537190082644 407.64462809917353,137.39669421487605 362.60330578512395,137.39669421487605" fill="white"></polygon><polygon points="362.60330578512395,137.39669421487605 407.64462809917353,137.39669421487605 407.64462809917353,182.43801652892563 362.60330578512395,182.43801652892563" fill="white"></polygon><polygon points="362.60330578512395,182.43801652892563 407.64462809917353,182.43801652892563 407.64462809917353,227.4793388429752 362.60330578512395,227.4793388429752" fill="white"></polygon><polygon points="362.60330578512395,227.4793388429752 407.64462809917353,227.4793388429752 407.64462809917353,272.5206611570248 362.60330578512395,272.5206611570248" fill="white"></polygon><polygon points="362.60330578512395,272.5206611570248 407.64462809917353,272.5206611570248 407.64462809917353,317.56198347107437 362.60330578512395,317.56198347107437" fill="white"></polygon><polygon points="362.60330578512395,317.56198347107437 407.64462809917353,317.56198347107437 407.64462809917353,362.60330578512395 362.60330578512395,362.60330578512395" fill="white"></polygon><polygon points="362.60330578512395,362.60330578512395 407.64462809917353,362.60330578512395 407.64462809917353,407.64462809917353 362.60330578512395,407.64462809917353" fill="white"></polygon><polygon points="362.60330578512395,407.64462809917353 407.64462809917353,407.64462809917353 407.64462809917353,452.6859504132231 362.60330578512395,452.6859504132231" fill="white"></polygon><polygon points="362.60330578512395,452.6859504132231 407.64462809917353,452.6859504132231 407.64462809917353,497.7272727272727 362.60330578512395,497.7272727272727" fill="white"></polygon><polygon points="407.64462809917353,2.272727272727273 452.6859504132231,2.272727272727273 452.6859504132231,47.31404958677686 407.64462809917353,47.31404958677686" fill="white"></polygon><polygon points="407.64462809917353,47.31404958677686 452.6859504132231,47.31404958677686 452.6859504132231,92.35537190082644 407.64462809917353,92.35537190082644" fill="white"></polygon><polygon points="407.64462809917353,92.35537190082644 452.6859504132231,92.35537190082644 452.6859504132231,137.39669421487605 407.64462809917353,137.39669421487605" fill="white"></polygon><polygon points="407.64462809917353,137.39669421487605 452.6859504132231,137.39669421487605 452.6859504132231,182.43801652892563 407.64462809917353,182.43801652892563" fill="white"></polygon><polygon points="407.64462809917353,182.43801652892563 452.6859504132231,182.43801652892563 452.6859504132231,227.4793388429752 407.64462809917353,227.4793388429752" fill="white"></polygon><polygon points="407.64462809917353,227.4793388429752 452.6859504132231,227.4793388429752 452.6859504132231,272.5206611570248 407.64462809917353,272.5206611570248" fill="white"></polygon><polygon points="407.64462809917353,272.5206611570248 452.6859504132231,272.5206611570248 452.6859504132231,317.56198347107437 407.64462809917353,317.56198347107437" fill="white"></polygon><polygon points="407.64462809917353,317.56198347107437 452.6859504132231,317.56198347107437 452.6859504132231,362.60330578512395 407.64462809917353,362.60330578512395" fill="white"></polygon><polygon points="407.64462809917353,362.60330578512395 452.6859504132231,362.60330578512395 452.6859504132231,407.64462809917353 407.64462809917353,407.64462809917353" fill="white"></polygon><polygon points="407.64462809917353,407.64462809917353 452.6859504132231,407.64462809917353 452.6859504132231,452.6859504132231 407.64462809917353,452.6859504132231" fill="white"></polygon><polygon points="407.64462809917353,452.6859504132231 452.6859504132231,452.6859504132231 452.6859504132231,497.7272727272727 407.64462809917353,497.7272727272727" fill="white"></polygon><polygon points="452.6859504132231,2.272727272727273 497.7272727272727,2.272727272727273 497.7272727272727,47.31404958677686 452.6859504132231,47.31404958677686" fill="white"></polygon><polygon points="452.6859504132231,47.31404958677686 497.7272727272727,47.31404958677686 497.7272727272727,92.35537190082644 452.6859504132231,92.35537190082644" fill="white"></polygon><polygon points="452.6859504132231,92.35537190082644 497.7272727272727,92.35537190082644 497.7272727272727,137.39669421487605 452.6859504132231,137.39669421487605" fill="white"></polygon><polygon points="452.6859504132231,137.39669421487605 497.7272727272727,137.39669421487605 497.7272727272727,182.43801652892563 452.6859504132231,182.43801652892563" fill="white"></polygon><polygon points="452.6859504132231,182.43801652892563 497.7272727272727,182.43801652892563 497.7272727272727,227.4793388429752 452.6859504132231,227.4793388429752" fill="white"></polygon><polygon points="452.6859504132231,227.4793388429752 497.7272727272727,227.4793388429752 497.7272727272727,272.5206611570248 452.6859504132231,272.5206611570248" fill="white"></polygon><polygon points="452.6859504132231,272.5206611570248 497.7272727272727,272.5206611570248 497.7272727272727,317.56198347107437 452.6859504132231,317.56198347107437" fill="white"></polygon><polygon points="452.6859504132231,317.56198347107437 497.7272727272727,317.56198347107437 497.7272727272727,362.60330578512395 452.6859504132231,362.60330578512395" fill="white"></polygon><polygon points="452.6859504132231,362.60330578512395 497.7272727272727,362.60330578512395 497.7272727272727,407.64462809917353 452.6859504132231,407.64462809917353" fill="white"></polygon><polygon points="452.6859504132231,407.64462809917353 497.7272727272727,407.64462809917353 497.7272727272727,452.6859504132231 452.6859504132231,452.6859504132231" fill="white"></polygon><polygon points="452.6859504132231,452.6859504132231 497.7272727272727,452.6859504132231 497.7272727272727,497.7272727272727 452.6859504132231,497.7272727272727" fill="white"></polygon><line x1="2.272727272727273" y1="2.272727272727273" x2="47.31404958677686" y2="2.272727272727273" stroke="black" stroke-width="4.545454545454546" stroke-linecap="round"></line><line x1="2.272727272727273" y1="2.272727272727273" x2="2.272727272727273" y2="47.31404958677686" stroke="black" stroke-width="4.545454545454546" stroke-linecap="round"></line><line x1="47.31404958677686" y1="47.31404958677686" x2="47.31404958677686" y2="92.35537190082644" stroke="black" stroke-width="4.545454545454546" stroke-linecap="round"></line><line x1="2.272727272727273" y1="47.31404958677686" x2="2.272727272727273" y2="92.35537190082644" stroke="black" stroke-width="4.545454545454546" stroke-linecap="round"></line><line x1="47.31404958677686" y1="92.35537190082644" x2="47.31404958677686" y2="137.39669421487605" stroke="black" stroke-width="4.545454545454546" stroke-linecap="round"></line><line x1="2.272727272727273" y1="92.35537190082644" x2="2.272727272727273" y2="137.39669421487605" stroke="black" stroke-width="4.545454545454546" stroke-linecap="round"></line><line x1="2.272727272727273" y1="182.43801652892563" x2="47.31404958677686" y2="182.43801652892563" stroke="black" stroke-width="4.545454545454546" stroke-linecap="round"></line><line x1="2.272727272727273" y1="137.39669421487605" x2="2.272727272727273" y2="182.43801652892563" stroke="black" stroke-width="4.545454545454546" stroke-linecap="round"></line><line x1="2.272727272727273" y1="182.43801652892563" x2="47.31404958677686" y2="182.43801652892563" stroke="black" stroke-width="4.545454545454546" stroke-linecap="round"></line><line x1="2.272727272727273" y1="182.43801652892563" x2="2.272727272727273" y2="227.4793388429752" stroke="black" stroke-width="4.545454545454546" stroke-linecap="round"></line><line x1="47.31404958677686" y1="227.4793388429752" x2="47.31404958677686" y2="272.5206611570248" stroke="black" stroke-width="4.545454545454546" stroke-linecap="round"></line><line x1="47.31404958677686" y1="272.5206611570248" x2="47.31404958677686" y2="317.56198347107437" stroke="black" stroke-width="4.545454545454546" stroke-linecap="round"></line><line x1="2.272727272727273" y1="272.5206611570248" x2="2.272727272727273" y2="317.56198347107437" stroke="black" stroke-width="4.545454545454546" stroke-linecap="round"></line><line x1="47.31404958677686" y1="317.56198347107437" x2="47.31404958677686" y2="362.60330578512395" stroke="black" stroke-width="4.545454545454546" stroke-linecap="round"></line><line x1="2.272727272727273" y1="317.56198347107437" x2="2.272727272727273" y2="362.60330578512395" stroke="black" stroke-width="4.545454545454546" stroke-linecap="round"></line><line x1="2.272727272727273" y1="407.64462809917353" x2="47.31404958677686" y2="407.64462809917353" stroke="black" stroke-width="4.545454545454546" stroke-linecap="round"></line><line x1="2.272727272727273" y1="362.60330578512395" x2="2.272727272727273" y2="407.64462809917353" stroke="black" stroke-width="4.545454545454546" stroke-linecap="round"></line><line x1="2.272727272727273" y1="407.64462809917353" x2="47.31404958677686" y2="407.64462809917353" stroke="black" stroke-width="4.545454545454546" stroke-linecap="round"></line><line x1="47.31404958677686" y1="407.64462809917353" x2="47.31404958677686" y2="452.6859504132231" stroke="black" stroke-width="4.545454545454546" stroke-linecap="round"></line><line x1="2.272727272727273" y1="407.64462809917353" x2="2.272727272727273" y2="452.6859504132231" stroke="black" stroke-width="4.545454545454546" stroke-linecap="round"></line><line x1="2.272727272727273" y1="497.7272727272727" x2="47.31404958677686" y2="497.7272727272727" stroke="black" stroke-width="4.545454545454546" stroke-linecap="round"></line><line x1="2.272727272727273" y1="452.6859504132231" x2="2.272727272727273" y2="497.7272727272727" stroke="black" stroke-width="4.545454545454546" stroke-linecap="round"></line><line x1="47.31404958677686" y1="2.272727272727273" x2="92.35537190082644" y2="2.272727272727273" stroke="black" stroke-width="4.545454545454546" stroke-linecap="round"></line><line x1="47.31404958677686" y1="47.31404958677686" x2="92.35537190082644" y2="47.31404958677686" stroke="black" stroke-width="4.545454545454546" stroke-linecap="round"></line><line x1="47.31404958677686" y1="47.31404958677686" x2="92.35537190082644" y2="47.31404958677686" stroke="black" stroke-width="4.545454545454546" stroke-linecap="round"></line><line x1="47.31404958677686" y1="47.31404958677686" x2="47.31404958677686" y2="92.35537190082644" stroke="black" stroke-width="4.545454545454546" stroke-linecap="round"></line><line x1="47.31404958677686" y1="137.39669421487605" x2="92.35537190082644" y2="137.39669421487605" stroke="black" stroke-width="4.545454545454546" stroke-linecap="round"></line><line x1="47.31404958677686" y1="92.35537190082644" x2="47.31404958677686" y2="137.39669421487605" stroke="black" stroke-width="4.545454545454546" stroke-linecap="round"></line><line x1="47.31404958677686" y1="137.39669421487605" x2="92.35537190082644" y2="137.39669421487605" stroke="black" stroke-width="4.545454545454546" stroke-linecap="round"></line><line x1="47.31404958677686" y1="182.43801652892563" x2="92.35537190082644" y2="182.43801652892563" stroke="black" stroke-width="4.545454545454546" stroke-linecap="round"></line><line x1="47.31404958677686" y1="182.43801652892563" x2="92.35537190082644" y2="182.43801652892563" stroke="black" stroke-width="4.545454545454546" stroke-linecap="round"></line><line x1="47.31404958677686" y1="227.4793388429752" x2="92.35537190082644" y2="227.4793388429752" stroke="black" stroke-width="4.545454545454546" stroke-linecap="round"></line><line x1="47.31404958677686" y1="227.4793388429752" x2="92.35537190082644" y2="227.4793388429752" stroke="black" stroke-width="4.545454545454546" stroke-linecap="round"></line><line x1="47.31404958677686" y1="227.4793388429752" x2="47.31404958677686" y2="272.5206611570248" stroke="black" stroke-width="4.545454545454546" stroke-linecap="round"></line><line x1="92.35537190082644" y1="272.5206611570248" x2="92.35537190082644" y2="317.56198347107437" stroke="black" stroke-width="4.545454545454546" stroke-linecap="round"></line><line x1="47.31404958677686" y1="272.5206611570248" x2="47.31404958677686" y2="317.56198347107437" stroke="black" stroke-width="4.545454545454546" stroke-linecap="round"></line><line x1="47.31404958677686" y1="362.60330578512395" x2="92.35537190082644" y2="362.60330578512395" stroke="black" stroke-width="4.545454545454546" stroke-linecap="round"></line><line x1="47.31404958677686" y1="317.56198347107437" x2="47.31404958677686" y2="362.60330578512395" stroke="black" stroke-width="4.545454545454546" stroke-linecap="round"></line><line x1="47.31404958677686" y1="362.60330578512395" x2="92.35537190082644" y2="362.60330578512395" stroke="black" stroke-width="4.545454545454546" stroke-linecap="round"></line><line x1="92.35537190082644" y1="362.60330578512395" x2="92.35537190082644" y2="407.64462809917353" stroke="black" stroke-width="4.545454545454546" stroke-linecap="round"></line><line x1="92.35537190082644" y1="407.64462809917353" x2="92.35537190082644" y2="452.6859504132231" stroke="black" stroke-width="4.545454545454546" stroke-linecap="round"></line><line x1="47.31404958677686" y1="407.64462809917353" x2="47.31404958677686" y2="452.6859504132231" stroke="black" stroke-width="4.545454545454546" stroke-linecap="round"></line><line x1="47.31404958677686" y1="497.7272727272727" x2="92.35537190082644" y2="497.7272727272727" stroke="black" stroke-width="4.545454545454546" stroke-linecap="round"></line><line x1="92.35537190082644" y1="2.272727272727273" x2="137.39669421487605" y2="2.272727272727273" stroke="black" stroke-width="4.545454545454546" stroke-linecap="round"></line><line x1="92.35537190082644" y1="47.31404958677686" x2="137.39669421487605" y2="47.31404958677686" stroke="black" stroke-width="4.545454545454546" stroke-linecap="round"></line><line x1="92.35537190082644" y1="47.31404958677686" x2="137.39669421487605" y2="47.31404958677686" stroke="black" stroke-width="4.545454545454546" stroke-linecap="round"></line><line x1="92.35537190082644" y1="92.35537190082644" x2="137.39669421487605" y2="92.35537190082644" stroke="black" stroke-width="4.545454545454546" stroke-linecap="round"></line><line x1="92.35537190082644" y1="92.35537190082644" x2="137.39669421487605" y2="92.35537190082644" stroke="black" stroke-width="4.545454545454546" stroke-linecap="round"></line><line x1="137.39669421487605" y1="92.35537190082644" x2="137.39669421487605" y2="137.39669421487605" stroke="black" stroke-width="4.545454545454546" stroke-linecap="round"></line><line x1="137.39669421487605" y1="137.39669421487605" x2="137.39669421487605" y2="182.43801652892563" stroke="black" stroke-width="4.545454545454546" stroke-linecap="round"></line><line x1="92.35537190082644" y1="227.4793388429752" x2="137.39669421487605" y2="227.4793388429752" stroke="black" stroke-width="4.545454545454546" stroke-linecap="round"></line><line x1="137.39669421487605" y1="182.43801652892563" x2="137.39669421487605" y2="227.4793388429752" stroke="black" stroke-width="4.545454545454546" stroke-linecap="round"></line><line x1="92.35537190082644" y1="227.4793388429752" x2="137.39669421487605" y2="227.4793388429752" stroke="black" stroke-width="4.545454545454546" stroke-linecap="round"></line><line x1="92.35537190082644" y1="317.56198347107437" x2="137.39669421487605" y2="317.56198347107437" stroke="black" stroke-width="4.545454545454546" stroke-linecap="round"></line><line x1="92.35537190082644" y1="272.5206611570248" x2="92.35537190082644" y2="317.56198347107437" stroke="black" stroke-width="4.545454545454546" stroke-linecap="round"></line><line x1="92.35537190082644" y1="317.56198347107437" x2="137.39669421487605" y2="317.56198347107437" stroke="black" stroke-width="4.545454545454546" stroke-linecap="round"></line><line x1="92.35537190082644" y1="362.60330578512395" x2="137.39669421487605" y2="362.60330578512395" stroke="black" stroke-width="4.545454545454546" stroke-linecap="round"></line><line x1="137.39669421487605" y1="317.56198347107437" x2="137.39669421487605" y2="362.60330578512395" stroke="black" stroke-width="4.545454545454546" stroke-linecap="round"></line><line x1="92.35537190082644" y1="362.60330578512395" x2="137.39669421487605" y2="362.60330578512395" stroke="black" stroke-width="4.545454545454546" stroke-linecap="round"></line><line x1="92.35537190082644" y1="362.60330578512395" x2="92.35537190082644" y2="407.64462809917353" stroke="black" stroke-width="4.545454545454546" stroke-linecap="round"></line><line x1="137.39669421487605" y1="407.64462809917353" x2="137.39669421487605" y2="452.6859504132231" stroke="black" stroke-width="4.545454545454546" stroke-linecap="round"></line><line x1="92.35537190082644" y1="407.64462809917353" x2="92.35537190082644" y2="452.6859504132231" stroke="black" stroke-width="4.545454545454546" stroke-linecap="round"></line><line x1="92.35537190082644" y1="497.7272727272727" x2="137.39669421487605" y2="497.7272727272727" stroke="black" stroke-width="4.545454545454546" stroke-linecap="round"></line><line x1="137.39669421487605" y1="452.6859504132231" x2="137.39669421487605" y2="497.7272727272727" stroke="black" stroke-width="4.545454545454546" stroke-linecap="round"></line><line x1="137.39669421487605" y1="2.272727272727273" x2="182.43801652892563" y2="2.272727272727273" stroke="black" stroke-width="4.545454545454546" stroke-linecap="round"></line><line x1="137.39669421487605" y1="47.31404958677686" x2="182.43801652892563" y2="47.31404958677686" stroke="black" stroke-width="4.545454545454546" stroke-linecap="round"></line><line x1="137.39669421487605" y1="47.31404958677686" x2="182.43801652892563" y2="47.31404958677686" stroke="black" stroke-width="4.545454545454546" stroke-linecap="round"></line><line x1="137.39669421487605" y1="92.35537190082644" x2="182.43801652892563" y2="92.35537190082644" stroke="black" stroke-width="4.545454545454546" stroke-linecap="round"></line><line x1="182.43801652892563" y1="47.31404958677686" x2="182.43801652892563" y2="92.35537190082644" stroke="black" stroke-width="4.545454545454546" stroke-linecap="round"></line><line x1="137.39669421487605" y1="92.35537190082644" x2="182.43801652892563" y2="92.35537190082644" stroke="black" stroke-width="4.545454545454546" stroke-linecap="round"></line><line x1="137.39669421487605" y1="92.35537190082644" x2="137.39669421487605" y2="137.39669421487605" stroke="black" stroke-width="4.545454545454546" stroke-linecap="round"></line><line x1="137.39669421487605" y1="182.43801652892563" x2="182.43801652892563" y2="182.43801652892563" stroke="black" stroke-width="4.545454545454546" stroke-linecap="round"></line><line x1="137.39669421487605" y1="137.39669421487605" x2="137.39669421487605" y2="182.43801652892563" stroke="black" stroke-width="4.545454545454546" stroke-linecap="round"></line><line x1="137.39669421487605" y1="182.43801652892563" x2="182.43801652892563" y2="182.43801652892563" stroke="black" stroke-width="4.545454545454546" stroke-linecap="round"></line><line x1="182.43801652892563" y1="182.43801652892563" x2="182.43801652892563" y2="227.4793388429752" stroke="black" stroke-width="4.545454545454546" stroke-linecap="round"></line><line x1="137.39669421487605" y1="182.43801652892563" x2="137.39669421487605" y2="227.4793388429752" stroke="black" stroke-width="4.545454545454546" stroke-linecap="round"></line><line x1="137.39669421487605" y1="272.5206611570248" x2="182.43801652892563" y2="272.5206611570248" stroke="black" stroke-width="4.545454545454546" stroke-linecap="round"></line><line x1="182.43801652892563" y1="227.4793388429752" x2="182.43801652892563" y2="272.5206611570248" stroke="black" stroke-width="4.545454545454546" stroke-linecap="round"></line><line x1="137.39669421487605" y1="272.5206611570248" x2="182.43801652892563" y2="272.5206611570248" stroke="black" stroke-width="4.545454545454546" stroke-linecap="round"></line><line x1="182.43801652892563" y1="272.5206611570248" x2="182.43801652892563" y2="317.56198347107437" stroke="black" stroke-width="4.545454545454546" stroke-linecap="round"></line><line x1="182.43801652892563" y1="317.56198347107437" x2="182.43801652892563" y2="362.60330578512395" stroke="black" stroke-width="4.545454545454546" stroke-linecap="round"></line><line x1="137.39669421487605" y1="317.56198347107437" x2="137.39669421487605" y2="362.60330578512395" stroke="black" stroke-width="4.545454545454546" stroke-linecap="round"></line><line x1="182.43801652892563" y1="362.60330578512395" x2="182.43801652892563" y2="407.64462809917353" stroke="black" stroke-width="4.545454545454546" stroke-linecap="round"></line><line x1="137.39669421487605" y1="452.6859504132231" x2="182.43801652892563" y2="452.6859504132231" stroke="black" stroke-width="4.545454545454546" stroke-linecap="round"></line><line x1="137.39669421487605" y1="407.64462809917353" x2="137.39669421487605" y2="452.6859504132231" stroke="black" stroke-width="4.545454545454546" stroke-linecap="round"></line><line x1="137.39669421487605" y1="452.6859504132231" x2="182.43801652892563" y2="452.6859504132231" stroke="black" stroke-width="4.545454545454546" stroke-linecap="round"></line><line x1="137.39669421487605" y1="497.7272727272727" x2="182.43801652892563" y2="497.7272727272727" stroke="black" stroke-width="4.545454545454546" stroke-linecap="round"></line><line x1="137.39669421487605" y1="452.6859504132231" x2="137.39669421487605" y2="497.7272727272727" stroke="black" stroke-width="4.545454545454546" stroke-linecap="round"></line><line x1="182.43801652892563" y1="2.272727272727273" x2="227.4793388429752" y2="2.272727272727273" stroke="black" stroke-width="4.545454545454546" stroke-linecap="round"></line><line x1="182.43801652892563" y1="47.31404958677686" x2="227.4793388429752" y2="47.31404958677686" stroke="black" stroke-width="4.545454545454546" stroke-linecap="round"></line><line x1="182.43801652892563" y1="47.31404958677686" x2="227.4793388429752" y2="47.31404958677686" stroke="black" stroke-width="4.545454545454546" stroke-linecap="round"></line><line x1="182.43801652892563" y1="47.31404958677686" x2="182.43801652892563" y2="92.35537190082644" stroke="black" stroke-width="4.545454545454546" stroke-linecap="round"></line><line x1="182.43801652892563" y1="137.39669421487605" x2="227.4793388429752" y2="137.39669421487605" stroke="black" stroke-width="4.545454545454546" stroke-linecap="round"></line><line x1="227.4793388429752" y1="92.35537190082644" x2="227.4793388429752" y2="137.39669421487605" stroke="black" stroke-width="4.545454545454546" stroke-linecap="round"></line><line x1="182.43801652892563" y1="137.39669421487605" x2="227.4793388429752" y2="137.39669421487605" stroke="black" stroke-width="4.545454545454546" stroke-linecap="round"></line><line x1="182.43801652892563" y1="182.43801652892563" x2="227.4793388429752" y2="182.43801652892563" stroke="black" stroke-width="4.545454545454546" stroke-linecap="round"></line><line x1="182.43801652892563" y1="182.43801652892563" x2="227.4793388429752" y2="182.43801652892563" stroke="black" stroke-width="4.545454545454546" stroke-linecap="round"></line><line x1="182.43801652892563" y1="182.43801652892563" x2="182.43801652892563" y2="227.4793388429752" stroke="black" stroke-width="4.545454545454546" stroke-linecap="round"></line><line x1="227.4793388429752" y1="227.4793388429752" x2="227.4793388429752" y2="272.5206611570248" stroke="black" stroke-width="4.545454545454546" stroke-linecap="round"></line><line x1="182.43801652892563" y1="227.4793388429752" x2="182.43801652892563" y2="272.5206611570248" stroke="black" stroke-width="4.545454545454546" stroke-linecap="round"></line><line x1="182.43801652892563" y1="317.56198347107437" x2="227.4793388429752" y2="317.56198347107437" stroke="black" stroke-width="4.545454545454546" stroke-linecap="round"></line><line x1="182.43801652892563" y1="272.5206611570248" x2="182.43801652892563" y2="317.56198347107437" stroke="black" stroke-width="4.545454545454546" stroke-linecap="round"></line><line x1="182.43801652892563" y1="317.56198347107437" x2="227.4793388429752" y2="317.56198347107437" stroke="black" stroke-width="4.545454545454546" stroke-linecap="round"></line><line x1="182.43801652892563" y1="317.56198347107437" x2="182.43801652892563" y2="362.60330578512395" stroke="black" stroke-width="4.545454545454546" stroke-linecap="round"></line><line x1="182.43801652892563" y1="407.64462809917353" x2="227.4793388429752" y2="407.64462809917353" stroke="black" stroke-width="4.545454545454546" stroke-linecap="round"></line><line x1="182.43801652892563" y1="362.60330578512395" x2="182.43801652892563" y2="407.64462809917353" stroke="black" stroke-width="4.545454545454546" stroke-linecap="round"></line><line x1="182.43801652892563" y1="407.64462809917353" x2="227.4793388429752" y2="407.64462809917353" stroke="black" stroke-width="4.545454545454546" stroke-linecap="round"></line><line x1="227.4793388429752" y1="407.64462809917353" x2="227.4793388429752" y2="452.6859504132231" stroke="black" stroke-width="4.545454545454546" stroke-linecap="round"></line><line x1="182.43801652892563" y1="497.7272727272727" x2="227.4793388429752" y2="497.7272727272727" stroke="black" stroke-width="4.545454545454546" stroke-linecap="round"></line><line x1="227.4793388429752" y1="2.272727272727273" x2="272.5206611570248" y2="2.272727272727273" stroke="black" stroke-width="4.545454545454546" stroke-linecap="round"></line><line x1="227.4793388429752" y1="92.35537190082644" x2="272.5206611570248" y2="92.35537190082644" stroke="black" stroke-width="4.545454545454546" stroke-linecap="round"></line><line x1="272.5206611570248" y1="47.31404958677686" x2="272.5206611570248" y2="92.35537190082644" stroke="black" stroke-width="4.545454545454546" stroke-linecap="round"></line><line x1="227.4793388429752" y1="92.35537190082644" x2="272.5206611570248" y2="92.35537190082644" stroke="black" stroke-width="4.545454545454546" stroke-linecap="round"></line><line x1="227.4793388429752" y1="92.35537190082644" x2="227.4793388429752" y2="137.39669421487605" stroke="black" stroke-width="4.545454545454546" stroke-linecap="round"></line><line x1="227.4793388429752" y1="182.43801652892563" x2="272.5206611570248" y2="182.43801652892563" stroke="black" stroke-width="4.545454545454546" stroke-linecap="round"></line><line x1="227.4793388429752" y1="182.43801652892563" x2="272.5206611570248" y2="182.43801652892563" stroke="black" stroke-width="4.545454545454546" stroke-linecap="round"></line><line x1="272.5206611570248" y1="182.43801652892563" x2="272.5206611570248" y2="227.4793388429752" stroke="black" stroke-width="4.545454545454546" stroke-linecap="round"></line><line x1="227.4793388429752" y1="272.5206611570248" x2="272.5206611570248" y2="272.5206611570248" stroke="black" stroke-width="4.545454545454546" stroke-linecap="round"></line><line x1="227.4793388429752" y1="227.4793388429752" x2="227.4793388429752" y2="272.5206611570248" stroke="black" stroke-width="4.545454545454546" stroke-linecap="round"></line><line x1="227.4793388429752" y1="272.5206611570248" x2="272.5206611570248" y2="272.5206611570248" stroke="black" stroke-width="4.545454545454546" stroke-linecap="round"></line><line x1="272.5206611570248" y1="272.5206611570248" x2="272.5206611570248" y2="317.56198347107437" stroke="black" stroke-width="4.545454545454546" stroke-linecap="round"></line><line x1="227.4793388429752" y1="362.60330578512395" x2="272.5206611570248" y2="362.60330578512395" stroke="black" stroke-width="4.545454545454546" stroke-linecap="round"></line><line x1="272.5206611570248" y1="317.56198347107437" x2="272.5206611570248" y2="362.60330578512395" stroke="black" stroke-width="4.545454545454546" stroke-linecap="round"></line><line x1="227.4793388429752" y1="362.60330578512395" x2="272.5206611570248" y2="362.60330578512395" stroke="black" stroke-width="4.545454545454546" stroke-linecap="round"></line><line x1="272.5206611570248" y1="362.60330578512395" x2="272.5206611570248" y2="407.64462809917353" stroke="black" stroke-width="4.545454545454546" stroke-linecap="round"></line><line x1="227.4793388429752" y1="452.6859504132231" x2="272.5206611570248" y2="452.6859504132231" stroke="black" stroke-width="4.545454545454546" stroke-linecap="round"></line><line x1="227.4793388429752" y1="407.64462809917353" x2="227.4793388429752" y2="452.6859504132231" stroke="black" stroke-width="4.545454545454546" stroke-linecap="round"></line><line x1="227.4793388429752" y1="452.6859504132231" x2="272.5206611570248" y2="452.6859504132231" stroke="black" stroke-width="4.545454545454546" stroke-linecap="round"></line><line x1="227.4793388429752" y1="497.7272727272727" x2="272.5206611570248" y2="497.7272727272727" stroke="black" stroke-width="4.545454545454546" stroke-linecap="round"></line><line x1="272.5206611570248" y1="2.272727272727273" x2="317.56198347107437" y2="2.272727272727273" stroke="black" stroke-width="4.545454545454546" stroke-linecap="round"></line><line x1="272.5206611570248" y1="47.31404958677686" x2="317.56198347107437" y2="47.31404958677686" stroke="black" stroke-width="4.545454545454546" stroke-linecap="round"></line><line x1="272.5206611570248" y1="47.31404958677686" x2="317.56198347107437" y2="47.31404958677686" stroke="black" stroke-width="4.545454545454546" stroke-linecap="round"></line><line x1="272.5206611570248" y1="47.31404958677686" x2="272.5206611570248" y2="92.35537190082644" stroke="black" stroke-width="4.545454545454546" stroke-linecap="round"></line><line x1="272.5206611570248" y1="137.39669421487605" x2="317.56198347107437" y2="137.39669421487605" stroke="black" stroke-width="4.545454545454546" stroke-linecap="round"></line><line x1="317.56198347107437" y1="92.35537190082644" x2="317.56198347107437" y2="137.39669421487605" stroke="black" stroke-width="4.545454545454546" stroke-linecap="round"></line><line x1="272.5206611570248" y1="137.39669421487605" x2="317.56198347107437" y2="137.39669421487605" stroke="black" stroke-width="4.545454545454546" stroke-linecap="round"></line><line x1="272.5206611570248" y1="182.43801652892563" x2="317.56198347107437" y2="182.43801652892563" stroke="black" stroke-width="4.545454545454546" stroke-linecap="round"></line><line x1="272.5206611570248" y1="182.43801652892563" x2="317.56198347107437" y2="182.43801652892563" stroke="black" stroke-width="4.545454545454546" stroke-linecap="round"></line><line x1="272.5206611570248" y1="182.43801652892563" x2="272.5206611570248" y2="227.4793388429752" stroke="black" stroke-width="4.545454545454546" stroke-linecap="round"></line><line x1="272.5206611570248" y1="272.5206611570248" x2="317.56198347107437" y2="272.5206611570248" stroke="black" stroke-width="4.545454545454546" stroke-linecap="round"></line><line x1="317.56198347107437" y1="227.4793388429752" x2="317.56198347107437" y2="272.5206611570248" stroke="black" stroke-width="4.545454545454546" stroke-linecap="round"></line><line x1="272.5206611570248" y1="272.5206611570248" x2="317.56198347107437" y2="272.5206611570248" stroke="black" stroke-width="4.545454545454546" stroke-linecap="round"></line><line x1="272.5206611570248" y1="272.5206611570248" x2="272.5206611570248" y2="317.56198347107437" stroke="black" stroke-width="4.545454545454546" stroke-linecap="round"></line><line x1="272.5206611570248" y1="362.60330578512395" x2="317.56198347107437" y2="362.60330578512395" stroke="black" stroke-width="4.545454545454546" stroke-linecap="round"></line><line x1="317.56198347107437" y1="317.56198347107437" x2="317.56198347107437" y2="362.60330578512395" stroke="black" stroke-width="4.545454545454546" stroke-linecap="round"></line><line x1="272.5206611570248" y1="317.56198347107437" x2="272.5206611570248" y2="362.60330578512395" stroke="black" stroke-width="4.545454545454546" stroke-linecap="round"></line><line x1="272.5206611570248" y1="362.60330578512395" x2="317.56198347107437" y2="362.60330578512395" stroke="black" stroke-width="4.545454545454546" stroke-linecap="round"></line><line x1="272.5206611570248" y1="362.60330578512395" x2="272.5206611570248" y2="407.64462809917353" stroke="black" stroke-width="4.545454545454546" stroke-linecap="round"></line><line x1="272.5206611570248" y1="452.6859504132231" x2="317.56198347107437" y2="452.6859504132231" stroke="black" stroke-width="4.545454545454546" stroke-linecap="round"></line><line x1="317.56198347107437" y1="407.64462809917353" x2="317.56198347107437" y2="452.6859504132231" stroke="black" stroke-width="4.545454545454546" stroke-linecap="round"></line><line x1="272.5206611570248" y1="452.6859504132231" x2="317.56198347107437" y2="452.6859504132231" stroke="black" stroke-width="4.545454545454546" stroke-linecap="round"></line><line x1="272.5206611570248" y1="497.7272727272727" x2="317.56198347107437" y2="497.7272727272727" stroke="black" stroke-width="4.545454545454546" stroke-linecap="round"></line><line x1="317.56198347107437" y1="2.272727272727273" x2="362.60330578512395" y2="2.272727272727273" stroke="black" stroke-width="4.545454545454546" stroke-linecap="round"></line><line x1="317.56198347107437" y1="47.31404958677686" x2="362.60330578512395" y2="47.31404958677686" stroke="black" stroke-width="4.545454545454546" stroke-linecap="round"></line><line x1="317.56198347107437" y1="47.31404958677686" x2="362.60330578512395" y2="47.31404958677686" stroke="black" stroke-width="4.545454545454546" stroke-linecap="round"></line><line x1="362.60330578512395" y1="47.31404958677686" x2="362.60330578512395" y2="92.35537190082644" stroke="black" stroke-width="4.545454545454546" stroke-linecap="round"></line><line x1="317.56198347107437" y1="137.39669421487605" x2="362.60330578512395" y2="137.39669421487605" stroke="black" stroke-width="4.545454545454546" stroke-linecap="round"></line><line x1="317.56198347107437" y1="92.35537190082644" x2="317.56198347107437" y2="137.39669421487605" stroke="black" stroke-width="4.545454545454546" stroke-linecap="round"></line><line x1="317.56198347107437" y1="137.39669421487605" x2="362.60330578512395" y2="137.39669421487605" stroke="black" stroke-width="4.545454545454546" stroke-linecap="round"></line><line x1="317.56198347107437" y1="182.43801652892563" x2="362.60330578512395" y2="182.43801652892563" stroke="black" stroke-width="4.545454545454546" stroke-linecap="round"></line><line x1="362.60330578512395" y1="137.39669421487605" x2="362.60330578512395" y2="182.43801652892563" stroke="black" stroke-width="4.545454545454546" stroke-linecap="round"></line><line x1="317.56198347107437" y1="182.43801652892563" x2="362.60330578512395" y2="182.43801652892563" stroke="black" stroke-width="4.545454545454546" stroke-linecap="round"></line><line x1="362.60330578512395" y1="227.4793388429752" x2="362.60330578512395" y2="272.5206611570248" stroke="black" stroke-width="4.545454545454546" stroke-linecap="round"></line><line x1="317.56198347107437" y1="227.4793388429752" x2="317.56198347107437" y2="272.5206611570248" stroke="black" stroke-width="4.545454545454546" stroke-linecap="round"></line><line x1="317.56198347107437" y1="317.56198347107437" x2="362.60330578512395" y2="317.56198347107437" stroke="black" stroke-width="4.545454545454546" stroke-linecap="round"></line><line x1="362.60330578512395" y1="272.5206611570248" x2="362.60330578512395" y2="317.56198347107437" stroke="black" stroke-width="4.545454545454546" stroke-linecap="round"></line><line x1="317.56198347107437" y1="317.56198347107437" x2="362.60330578512395" y2="317.56198347107437" stroke="black" stroke-width="4.545454545454546" stroke-linecap="round"></line><line x1="317.56198347107437" y1="362.60330578512395" x2="362.60330578512395" y2="362.60330578512395" stroke="black" stroke-width="4.545454545454546" stroke-linecap="round"></line><line x1="317.56198347107437" y1="317.56198347107437" x2="317.56198347107437" y2="362.60330578512395" stroke="black" stroke-width="4.545454545454546" stroke-linecap="round"></line><line x1="317.56198347107437" y1="362.60330578512395" x2="362.60330578512395" y2="362.60330578512395" stroke="black" stroke-width="4.545454545454546" stroke-linecap="round"></line><line x1="317.56198347107437" y1="407.64462809917353" x2="362.60330578512395" y2="407.64462809917353" stroke="black" stroke-width="4.545454545454546" stroke-linecap="round"></line><line x1="317.56198347107437" y1="407.64462809917353" x2="362.60330578512395" y2="407.64462809917353" stroke="black" stroke-width="4.545454545454546" stroke-linecap="round"></line><line x1="317.56198347107437" y1="452.6859504132231" x2="362.60330578512395" y2="452.6859504132231" stroke="black" stroke-width="4.545454545454546" stroke-linecap="round"></line><line x1="317.56198347107437" y1="407.64462809917353" x2="317.56198347107437" y2="452.6859504132231" stroke="black" stroke-width="4.545454545454546" stroke-linecap="round"></line><line x1="317.56198347107437" y1="452.6859504132231" x2="362.60330578512395" y2="452.6859504132231" stroke="black" stroke-width="4.545454545454546" stroke-linecap="round"></line><line x1="317.56198347107437" y1="497.7272727272727" x2="362.60330578512395" y2="497.7272727272727" stroke="black" stroke-width="4.545454545454546" stroke-linecap="round"></line><line x1="362.60330578512395" y1="2.272727272727273" x2="407.64462809917353" y2="2.272727272727273" stroke="black" stroke-width="4.545454545454546" stroke-linecap="round"></line><line x1="407.64462809917353" y1="2.272727272727273" x2="407.64462809917353" y2="47.31404958677686" stroke="black" stroke-width="4.545454545454546" stroke-linecap="round"></line><line x1="362.60330578512395" y1="92.35537190082644" x2="407.64462809917353" y2="92.35537190082644" stroke="black" stroke-width="4.545454545454546" stroke-linecap="round"></line><line x1="362.60330578512395" y1="47.31404958677686" x2="362.60330578512395" y2="92.35537190082644" stroke="black" stroke-width="4.545454545454546" stroke-linecap="round"></line><line x1="362.60330578512395" y1="92.35537190082644" x2="407.64462809917353" y2="92.35537190082644" stroke="black" stroke-width="4.545454545454546" stroke-linecap="round"></line><line x1="362.60330578512395" y1="137.39669421487605" x2="407.64462809917353" y2="137.39669421487605" stroke="black" stroke-width="4.545454545454546" stroke-linecap="round"></line><line x1="362.60330578512395" y1="137.39669421487605" x2="407.64462809917353" y2="137.39669421487605" stroke="black" stroke-width="4.545454545454546" stroke-linecap="round"></line><line x1="362.60330578512395" y1="137.39669421487605" x2="362.60330578512395" y2="182.43801652892563" stroke="black" stroke-width="4.545454545454546" stroke-linecap="round"></line><line x1="362.60330578512395" y1="227.4793388429752" x2="407.64462809917353" y2="227.4793388429752" stroke="black" stroke-width="4.545454545454546" stroke-linecap="round"></line><line x1="407.64462809917353" y1="182.43801652892563" x2="407.64462809917353" y2="227.4793388429752" stroke="black" stroke-width="4.545454545454546" stroke-linecap="round"></line><line x1="362.60330578512395" y1="227.4793388429752" x2="407.64462809917353" y2="227.4793388429752" stroke="black" stroke-width="4.545454545454546" stroke-linecap="round"></line><line x1="362.60330578512395" y1="227.4793388429752" x2="362.60330578512395" y2="272.5206611570248" stroke="black" stroke-width="4.545454545454546" stroke-linecap="round"></line><line x1="362.60330578512395" y1="317.56198347107437" x2="407.64462809917353" y2="317.56198347107437" stroke="black" stroke-width="4.545454545454546" stroke-linecap="round"></line><line x1="362.60330578512395" y1="272.5206611570248" x2="362.60330578512395" y2="317.56198347107437" stroke="black" stroke-width="4.545454545454546" stroke-linecap="round"></line><line x1="362.60330578512395" y1="317.56198347107437" x2="407.64462809917353" y2="317.56198347107437" stroke="black" stroke-width="4.545454545454546" stroke-linecap="round"></line><line x1="362.60330578512395" y1="362.60330578512395" x2="407.64462809917353" y2="362.60330578512395" stroke="black" stroke-width="4.545454545454546" stroke-linecap="round"></line><line x1="362.60330578512395" y1="362.60330578512395" x2="407.64462809917353" y2="362.60330578512395" stroke="black" stroke-width="4.545454545454546" stroke-linecap="round"></line><line x1="362.60330578512395" y1="407.64462809917353" x2="407.64462809917353" y2="407.64462809917353" stroke="black" stroke-width="4.545454545454546" stroke-linecap="round"></line><line x1="362.60330578512395" y1="407.64462809917353" x2="407.64462809917353" y2="407.64462809917353" stroke="black" stroke-width="4.545454545454546" stroke-linecap="round"></line><line x1="407.64462809917353" y1="407.64462809917353" x2="407.64462809917353" y2="452.6859504132231" stroke="black" stroke-width="4.545454545454546" stroke-linecap="round"></line><line x1="362.60330578512395" y1="497.7272727272727" x2="407.64462809917353" y2="497.7272727272727" stroke="black" stroke-width="4.545454545454546" stroke-linecap="round"></line><line x1="407.64462809917353" y1="452.6859504132231" x2="407.64462809917353" y2="497.7272727272727" stroke="black" stroke-width="4.545454545454546" stroke-linecap="round"></line><line x1="407.64462809917353" y1="2.272727272727273" x2="452.6859504132231" y2="2.272727272727273" stroke="black" stroke-width="4.545454545454546" stroke-linecap="round"></line><line x1="407.64462809917353" y1="2.272727272727273" x2="407.64462809917353" y2="47.31404958677686" stroke="black" stroke-width="4.545454545454546" stroke-linecap="round"></line><line x1="407.64462809917353" y1="92.35537190082644" x2="452.6859504132231" y2="92.35537190082644" stroke="black" stroke-width="4.545454545454546" stroke-linecap="round"></line><line x1="452.6859504132231" y1="47.31404958677686" x2="452.6859504132231" y2="92.35537190082644" stroke="black" stroke-width="4.545454545454546" stroke-linecap="round"></line><line x1="407.64462809917353" y1="92.35537190082644" x2="452.6859504132231" y2="92.35537190082644" stroke="black" stroke-width="4.545454545454546" stroke-linecap="round"></line><line x1="452.6859504132231" y1="92.35537190082644" x2="452.6859504132231" y2="137.39669421487605" stroke="black" stroke-width="4.545454545454546" stroke-linecap="round"></line><line x1="407.64462809917353" y1="182.43801652892563" x2="452.6859504132231" y2="182.43801652892563" stroke="black" stroke-width="4.545454545454546" stroke-linecap="round"></line><line x1="452.6859504132231" y1="137.39669421487605" x2="452.6859504132231" y2="182.43801652892563" stroke="black" stroke-width="4.545454545454546" stroke-linecap="round"></line><line x1="407.64462809917353" y1="182.43801652892563" x2="452.6859504132231" y2="182.43801652892563" stroke="black" stroke-width="4.545454545454546" stroke-linecap="round"></line><line x1="407.64462809917353" y1="227.4793388429752" x2="452.6859504132231" y2="227.4793388429752" stroke="black" stroke-width="4.545454545454546" stroke-linecap="round"></line><line x1="407.64462809917353" y1="182.43801652892563" x2="407.64462809917353" y2="227.4793388429752" stroke="black" stroke-width="4.545454545454546" stroke-linecap="round"></line><line x1="407.64462809917353" y1="227.4793388429752" x2="452.6859504132231" y2="227.4793388429752" stroke="black" stroke-width="4.545454545454546" stroke-linecap="round"></line><line x1="407.64462809917353" y1="272.5206611570248" x2="452.6859504132231" y2="272.5206611570248" stroke="black" stroke-width="4.545454545454546" stroke-linecap="round"></line><line x1="407.64462809917353" y1="272.5206611570248" x2="452.6859504132231" y2="272.5206611570248" stroke="black" stroke-width="4.545454545454546" stroke-linecap="round"></line><line x1="452.6859504132231" y1="272.5206611570248" x2="452.6859504132231" y2="317.56198347107437" stroke="black" stroke-width="4.545454545454546" stroke-linecap="round"></line><line x1="407.64462809917353" y1="362.60330578512395" x2="452.6859504132231" y2="362.60330578512395" stroke="black" stroke-width="4.545454545454546" stroke-linecap="round"></line><line x1="452.6859504132231" y1="317.56198347107437" x2="452.6859504132231" y2="362.60330578512395" stroke="black" stroke-width="4.545454545454546" stroke-linecap="round"></line><line x1="407.64462809917353" y1="362.60330578512395" x2="452.6859504132231" y2="362.60330578512395" stroke="black" stroke-width="4.545454545454546" stroke-linecap="round"></line><line x1="452.6859504132231" y1="362.60330578512395" x2="452.6859504132231" y2="407.64462809917353" stroke="black" stroke-width="4.545454545454546" stroke-linecap="round"></line><line x1="452.6859504132231" y1="407.64462809917353" x2="452.6859504132231" y2="452.6859504132231" stroke="black" stroke-width="4.545454545454546" stroke-linecap="round"></line><line x1="407.64462809917353" y1="407.64462809917353" x2="407.64462809917353" y2="452.6859504132231" stroke="black" stroke-width="4.545454545454546" stroke-linecap="round"></line><line x1="407.64462809917353" y1="497.7272727272727" x2="452.6859504132231" y2="497.7272727272727" stroke="black" stroke-width="4.545454545454546" stroke-linecap="round"></line><line x1="407.64462809917353" y1="452.6859504132231" x2="407.64462809917353" y2="497.7272727272727" stroke="black" stroke-width="4.545454545454546" stroke-linecap="round"></line><line x1="452.6859504132231" y1="2.272727272727273" x2="497.7272727272727" y2="2.272727272727273" stroke="black" stroke-width="4.545454545454546" stroke-linecap="round"></line><line x1="497.7272727272727" y1="2.272727272727273" x2="497.7272727272727" y2="47.31404958677686" stroke="black" stroke-width="4.545454545454546" stroke-linecap="round"></line><line x1="497.7272727272727" y1="47.31404958677686" x2="497.7272727272727" y2="92.35537190082644" stroke="black" stroke-width="4.545454545454546" stroke-linecap="round"></line><line x1="452.6859504132231" y1="47.31404958677686" x2="452.6859504132231" y2="92.35537190082644" stroke="black" stroke-width="4.545454545454546" stroke-linecap="round"></line><line x1="497.7272727272727" y1="92.35537190082644" x2="497.7272727272727" y2="137.39669421487605" stroke="black" stroke-width="4.545454545454546" stroke-linecap="round"></line><line x1="452.6859504132231" y1="92.35537190082644" x2="452.6859504132231" y2="137.39669421487605" stroke="black" stroke-width="4.545454545454546" stroke-linecap="round"></line><line x1="497.7272727272727" y1="137.39669421487605" x2="497.7272727272727" y2="182.43801652892563" stroke="black" stroke-width="4.545454545454546" stroke-linecap="round"></line><line x1="452.6859504132231" y1="137.39669421487605" x2="452.6859504132231" y2="182.43801652892563" stroke="black" stroke-width="4.545454545454546" stroke-linecap="round"></line><line x1="452.6859504132231" y1="227.4793388429752" x2="497.7272727272727" y2="227.4793388429752" stroke="black" stroke-width="4.545454545454546" stroke-linecap="round"></line><line x1="497.7272727272727" y1="182.43801652892563" x2="497.7272727272727" y2="227.4793388429752" stroke="black" stroke-width="4.545454545454546" stroke-linecap="round"></line><line x1="452.6859504132231" y1="227.4793388429752" x2="497.7272727272727" y2="227.4793388429752" stroke="black" stroke-width="4.545454545454546" stroke-linecap="round"></line><line x1="497.7272727272727" y1="272.5206611570248" x2="497.7272727272727" y2="317.56198347107437" stroke="black" stroke-width="4.545454545454546" stroke-linecap="round"></line><line x1="452.6859504132231" y1="272.5206611570248" x2="452.6859504132231" y2="317.56198347107437" stroke="black" stroke-width="4.545454545454546" stroke-linecap="round"></line><line x1="497.7272727272727" y1="317.56198347107437" x2="497.7272727272727" y2="362.60330578512395" stroke="black" stroke-width="4.545454545454546" stroke-linecap="round"></line><line x1="452.6859504132231" y1="317.56198347107437" x2="452.6859504132231" y2="362.60330578512395" stroke="black" stroke-width="4.545454545454546" stroke-linecap="round"></line><line x1="497.7272727272727" y1="362.60330578512395" x2="497.7272727272727" y2="407.64462809917353" stroke="black" stroke-width="4.545454545454546" stroke-linecap="round"></line><line x1="452.6859504132231" y1="362.60330578512395" x2="452.6859504132231" y2="407.64462809917353" stroke="black" stroke-width="4.545454545454546" stroke-linecap="round"></line><line x1="497.7272727272727" y1="407.64462809917353" x2="497.7272727272727" y2="452.6859504132231" stroke="black" stroke-width="4.545454545454546" stroke-linecap="round"></line><line x1="452.6859504132231" y1="407.64462809917353" x2="452.6859504132231" y2="452.6859504132231" stroke="black" stroke-width="4.545454545454546" stroke-linecap="round"></line><line x1="452.6859504132231" y1="497.7272727272727" x2="497.7272727272727" y2="497.7272727272727" stroke="black" stroke-width="4.545454545454546" stroke-linecap="round"></line><line x1="497.7272727272727" y1="452.6859504132231" x2="497.7272727272727" y2="497.7272727272727" stroke="black" stroke-width="4.545454545454546" stroke-linecap="round"></line></svg>